<svg width="753" height="750" viewBox="0 0 753 750" fill="none" xmlns="http://www.w3.org/2000/svg">
<rect width="753" height="750" rx="32" fill="#161F73"/>
<g clip-path="url(#clip0_187_6)">
<path d="M160.458 608.984L117 79.9929L636 81.056L590.048 608.984L378.459 670.007L160.458 608.984Z" fill="#1B73BA"/>
<path d="M378.459 618.918V130.373L592.187 131.082L554.074 568.183L378.459 618.918Z" fill="#1C88C7"/>
<path d="M539.11 192.818H210.328L219.235 256.676H375.253L221.729 322.314L230.632 384.046H456.828L448.633 470.258L372.047 485.161L302.589 467.423L297.244 418.46H233.482L242.029 520.288L378.815 558.249L509.904 516.74L526.646 317.699H388.073L539.106 255.259L539.11 192.818Z" fill="white"/>
</g>
<defs>
<clipPath id="clip0_187_6">
<rect width="519" height="592" fill="white" transform="translate(117 79)"/>
</clipPath>
</defs>
</svg>
