<svg width="750" height="750" viewBox="0 0 750 750" fill="none" xmlns="http://www.w3.org/2000/svg">
<rect width="750" height="750" rx="32" fill="#09090B"/>
<path d="M665 534.409C643.903 539.774 630.852 534.645 619.144 517.064L535.878 401.861L523.842 385.911L426.602 517.444C415.491 533.267 403.837 540.155 383.102 534.554L507.621 367.406L391.693 216.424C411.631 212.545 425.406 214.521 437.64 232.374L524.006 349.009L611.006 233.009C622.153 217.185 634.133 211.168 654.143 217.004L609.193 276.599L548.293 355.896C541.043 364.959 542.04 371.157 548.71 379.912L665 534.409ZM85.145 364.614L95.3313 314.517C123.062 215.373 236.706 174.175 315.079 235.437C360.881 271.47 372.263 322.437 369.997 379.531H111.825C107.946 482.3 181.914 544.324 276.219 512.677C309.297 501.567 328.781 475.666 338.533 443.259C343.481 427.019 351.673 424.481 366.934 429.121C359.141 469.649 341.559 503.506 304.403 524.694C248.886 556.413 169.644 546.154 127.956 502.074C103.125 476.5 92.8663 444.092 88.2625 409.437C87.5375 403.71 86.0875 398.254 85 392.762C85.0967 383.386 85.145 374.009 85.145 364.632V364.614ZM112.296 357.727H345.601C344.079 283.414 297.806 230.634 234.568 230.181C165.149 229.637 115.305 281.167 112.296 357.727Z" fill="white"/>
</svg>
