<svg width="750" height="750" viewBox="0 0 750 750" fill="none" xmlns="http://www.w3.org/2000/svg">
<rect width="750" height="750" rx="32" fill="#270702"/>
<path d="M619.18 352.398L397.602 130.82C394.571 127.778 390.969 125.365 387.003 123.718C383.038 122.072 378.786 121.224 374.492 121.224C370.198 121.224 365.947 122.072 361.981 123.718C358.015 125.365 354.414 127.778 351.383 130.82L305.363 176.839L363.726 235.202C370.608 232.86 378.01 232.498 385.088 234.158C392.165 235.817 398.635 239.432 403.758 244.59C408.882 249.747 412.453 256.24 414.066 263.329C415.679 270.417 415.268 277.816 412.881 284.683L469.068 340.87C477.467 337.985 486.601 338.065 494.948 341.097C503.295 344.128 510.351 349.929 514.941 357.531C519.53 365.134 521.376 374.079 520.17 382.878C518.965 391.676 514.781 399.795 508.316 405.883C501.851 411.971 493.494 415.66 484.64 416.335C475.785 417.009 466.966 414.63 459.653 409.592C452.34 404.554 446.974 397.162 444.449 388.648C441.924 380.134 442.393 371.012 445.778 362.802L393.306 310.33V448.388C401.255 452.326 407.614 458.869 411.325 466.926C415.036 474.983 415.874 484.069 413.7 492.669C411.526 501.269 406.472 508.865 399.378 514.191C392.284 519.518 383.58 522.253 374.715 521.941C365.849 521.63 357.359 518.29 350.656 512.479C343.954 506.668 339.445 498.736 337.881 490.004C336.316 481.272 337.79 472.268 342.058 464.492C346.325 456.715 353.128 450.635 361.333 447.264V307.937C356.586 305.99 352.272 303.122 348.638 299.5C345.004 295.877 342.122 291.571 340.159 286.831C338.197 282.09 337.191 277.007 337.201 271.876C337.211 266.745 338.237 261.667 340.218 256.934L282.762 199.441L130.82 351.437C127.775 354.469 125.36 358.071 123.712 362.039C122.063 366.006 121.215 370.26 121.215 374.556C121.215 378.852 122.063 383.106 123.712 387.073C125.36 391.04 127.775 394.643 130.82 397.674L352.398 619.18C355.429 622.221 359.03 624.635 362.996 626.281C366.962 627.928 371.213 628.776 375.507 628.776C379.801 628.776 384.053 627.928 388.018 626.281C391.984 624.635 395.586 622.221 398.617 619.18L619.18 398.562C622.224 395.531 624.639 391.928 626.288 387.961C627.936 383.994 628.784 379.74 628.784 375.444C628.784 371.148 627.936 366.894 626.288 362.927C624.639 358.959 622.224 355.357 619.18 352.325" fill="black"/>
<path d="M305.364 176.839L363.726 235.202C370.608 232.86 378.01 232.498 385.088 234.158C392.166 235.818 398.635 239.432 403.758 244.59C408.882 249.747 412.454 256.24 414.066 263.329C415.679 270.417 415.269 277.817 412.881 284.683L469.069 340.871C477.467 337.985 486.601 338.065 494.948 341.097C503.295 344.128 510.351 349.929 514.941 357.531C519.53 365.134 521.376 374.079 520.171 382.878C518.965 391.676 514.781 399.796 508.316 405.883C501.851 411.971 493.495 415.66 484.64 416.335C475.785 417.01 466.966 414.63 459.653 409.592C452.34 404.554 446.974 397.162 444.449 388.648C441.924 380.134 442.393 371.012 445.778 362.802L393.306 310.33V448.388C401.255 452.326 407.614 458.869 411.325 466.926C415.036 474.983 415.874 484.069 413.7 492.669C411.527 501.269 406.472 508.865 399.378 514.192C392.285 519.518 383.58 522.253 374.715 521.941C365.85 521.63 357.359 518.29 350.657 512.479C343.954 506.668 339.445 498.736 337.881 490.004C336.316 481.273 337.79 472.268 342.058 464.492C346.325 456.715 353.128 450.635 361.334 447.264V307.937C356.587 305.99 352.272 303.122 348.638 299.5C345.004 295.877 342.122 291.572 340.16 286.831C338.197 282.09 337.192 277.007 337.202 271.876C337.212 266.745 338.237 261.667 340.218 256.934L282.762 199.441" fill="#DD4C35"/>
</svg>
