<svg width="750" height="750" viewBox="0 0 750 750" fill="none" xmlns="http://www.w3.org/2000/svg">
<rect width="750" height="750" rx="32" fill="white"/>
<path d="M286.239 538.825C286.239 538.825 260.461 552.135 304.585 556.639C358.039 562.053 385.359 561.277 444.267 551.378C444.267 551.378 459.754 560 481.383 567.468C349.328 617.717 182.518 564.557 286.239 538.825Z" fill="#5382A1"/>
<path d="M270.103 473.252C270.103 473.252 241.19 492.254 285.347 496.309C342.448 501.54 387.543 501.967 465.574 488.627C465.574 488.627 476.367 498.342 493.337 503.654C333.676 545.106 155.841 506.923 270.103 473.252Z" fill="#5382A1"/>
<path d="M406.137 362.02C438.676 395.281 397.588 425.211 397.588 425.211C397.588 425.211 480.208 387.343 442.265 339.923C406.827 295.701 379.65 273.729 526.772 197.972C526.772 197.972 295.839 249.181 406.137 362.02Z" fill="#E76F00"/>
<path d="M580.789 587.326C580.789 587.326 599.866 601.282 559.78 612.078C483.557 632.58 242.529 638.771 175.573 612.895C151.504 603.598 196.64 590.697 210.838 587.99C225.646 585.139 234.108 585.67 234.108 585.67C207.34 568.928 61.0948 618.544 159.822 632.753C429.066 671.52 650.628 615.296 580.789 587.326Z" fill="#5382A1"/>
<path d="M298.635 405.312C298.635 405.312 176.033 431.166 255.218 440.555C288.653 444.529 355.304 443.63 417.388 439.012C468.126 435.212 519.073 427.132 519.073 427.132C519.073 427.132 501.182 433.935 488.238 441.782C363.738 470.854 123.228 457.329 192.468 427.592C251.024 402.461 298.635 405.312 298.635 405.312Z" fill="#5382A1"/>
<path d="M518.567 514.461C645.127 456.07 586.611 399.957 545.767 407.517C535.756 409.367 531.293 410.97 531.293 410.97C531.293 410.97 535.009 405.801 542.107 403.563C622.909 378.342 685.051 477.952 516.023 517.403C516.023 517.403 517.982 515.85 518.567 514.461Z" fill="#5382A1"/>
<path d="M442.263 75.644C442.263 75.644 512.354 137.896 375.785 233.622C266.27 310.411 350.812 354.194 375.739 404.217C311.814 353.009 264.901 307.93 296.374 265.974C342.569 204.387 470.543 174.528 442.263 75.644Z" fill="#E76F00"/>
<path d="M311.07 672.685C432.552 679.59 619.101 668.855 623.519 617.819C623.519 617.819 615.027 637.166 523.121 652.531C419.434 669.856 291.55 667.833 215.701 656.73C215.701 656.73 231.228 668.14 311.07 672.685Z" fill="#5382A1"/>
</svg>
