<svg width="750" height="750" viewBox="0 0 750 750" fill="none" xmlns="http://www.w3.org/2000/svg">
<rect width="750" height="750" rx="32" fill="#8A7711"/>
<g clip-path="url(#clip0_187_26)">
<path d="M85 85H665V665H85V85Z" fill="#F7DF1E"/>
<path d="M237.503 569.69L281.889 542.829C290.451 558.011 298.241 570.857 316.925 570.857C334.835 570.857 346.127 563.851 346.127 536.6V351.276H400.632V537.371C400.632 593.824 367.541 619.52 319.262 619.52C275.66 619.52 250.349 596.937 237.502 569.686" fill="black"/>
<path d="M430.238 563.85L474.618 538.154C486.301 557.233 501.485 571.248 528.348 571.248C550.932 571.248 565.333 559.957 565.333 544.383C565.333 525.695 550.539 519.076 525.622 508.178L511.999 502.334C472.674 485.596 446.588 464.572 446.588 420.188C446.588 379.308 477.734 348.16 526.402 348.16C561.053 348.16 585.97 360.23 603.877 391.767L561.44 419.018C552.095 402.279 541.976 395.661 526.403 395.661C510.44 395.661 500.317 405.783 500.317 419.018C500.317 435.371 510.44 441.991 533.798 452.114L547.423 457.954C593.754 477.811 619.84 498.054 619.84 543.604C619.84 592.663 581.297 619.524 529.517 619.524C478.904 619.524 446.198 595.387 430.238 563.85Z" fill="black"/>
</g>
<defs>
<clipPath id="clip0_187_26">
<rect width="580" height="580" fill="white" transform="translate(85 85)"/>
</clipPath>
</defs>
</svg>
