<svg width="750" height="750" viewBox="0 0 750 750" fill="none" xmlns="http://www.w3.org/2000/svg">
<rect width="750" height="750" rx="32" fill="#00ED64"/>
<path d="M367.863 607C365.598 586.61 363.974 568.862 362.992 553.758C360.727 552.625 172.68 411.024 335.805 200.66C350.154 183.291 362.992 166.487 374.32 150.25C374.66 149.797 375.227 149.684 375.68 150.25C388.518 168.375 400.602 184.235 411.93 197.828C578.453 407.399 391.539 551.266 387.008 553.531C385.497 572.412 383.836 590.235 382.023 607M364.238 538.578C365.749 540.844 369.336 544.507 375 549.567C380.286 545.035 383.874 541.373 385.762 538.578L375.566 309.524C375.566 308.731 374.434 308.731 374.434 309.524" fill="#001E2B"/>
</svg>
