<svg width="750" height="750" viewBox="0 0 750 750" fill="none" xmlns="http://www.w3.org/2000/svg">
<rect width="750" height="750" rx="32" fill="#2D0303"/>
<path d="M401.974 263.119C394.38 263.436 381.547 265.475 381.547 266.336C381.547 266.694 390.592 271.226 391.285 271.226C391.919 271.226 402.418 276.464 404.752 277.914C407.797 279.862 409.976 281.629 409.337 281.629C408.93 281.629 398.15 277.456 394.063 275.702C390.737 274.302 376.912 270.179 370.183 268.588C366.54 267.736 364.999 267.419 358.805 266.286C349.67 264.619 338.926 264.519 334.255 266.055C327.562 268.23 326.058 270.904 326.058 280.764C326.058 286.201 326.325 288.499 327.508 293.383C328.024 295.508 329.474 300.18 330.149 301.757C330.344 302.256 330.979 303.796 331.509 305.156C332.057 306.501 333.706 309.986 335.156 312.836C343.299 328.999 355.493 342.47 372.68 354.324C378.099 358.04 392.826 365.086 398.734 366.771C400.239 367.179 400.737 368.027 399.514 368.027C398.154 368.027 385.693 364.592 383.142 363.514C382.172 363.083 381.186 362.687 380.188 362.326C371.32 358.751 359.992 351.388 350.626 343.014C340.362 333.884 332.157 322.675 326.556 310.131C322.963 302.02 320.52 292.572 319.918 284.339C319.564 279.631 319.193 278.498 317.969 278.553C317.561 278.553 313.687 278.412 309.419 278.181C297.81 277.683 281.95 278.96 266.25 281.67C236.23 286.781 203.841 298.59 170.509 316.588C164.966 319.589 159.489 322.712 154.083 325.954C153.449 326.326 151.446 327.544 149.624 328.677C147.816 329.81 145.678 331.07 144.898 331.564C143.176 332.574 124.118 345.511 121.834 347.228C120.982 347.849 118.612 349.616 116.614 351.071C107.565 357.759 87.8679 373.831 86.7351 375.462C86.1868 376.278 87.0523 376.686 88.2213 376.278C88.824 376.042 90.3646 375.725 91.6016 375.553C92.8749 375.354 96.151 374.506 98.8743 373.605C101.638 372.735 104.611 371.833 105.463 371.602C112.205 370.025 114.933 369.477 118.875 368.892C120.665 368.666 123.302 368.258 124.789 368.027C143.267 365.317 152.085 364.646 160.314 365.263C178.189 366.713 195.29 369.762 205.078 373.229C212.405 375.866 227.308 383.922 233.86 388.753C237.648 391.607 249.824 403.728 252.515 407.39C254.6 410.294 256.92 412.827 257.468 412.827C257.649 412.827 257.876 403.583 257.93 392.328L258.053 371.883L281.987 371.747C300.819 371.656 306.039 371.797 306.36 372.2C306.818 372.789 307.914 374.737 311.508 381.371C314.924 387.76 316.605 390.841 317.652 392.681C318.196 393.692 319.456 396.03 320.52 397.888C321.508 399.745 323.366 403.18 324.644 405.532C325.917 407.888 326.959 409.886 326.959 409.972C326.959 410.38 328.835 412.827 329.157 412.827C329.334 412.827 329.791 412.134 330.109 411.377C330.466 410.561 331.423 408.753 332.202 407.39C333.018 406.03 334.468 403.375 335.474 401.517C336.484 399.659 337.848 397.076 338.573 395.853C340.571 392.273 342.66 388.399 344.396 385.232C346.236 381.732 348.13 378.26 350.078 374.819C350.662 373.686 351.392 372.499 351.618 372.2C351.99 371.792 357.35 371.652 376.735 371.738L401.34 371.878L401.476 411.83C401.566 443.3 401.693 451.728 402.155 451.728C402.418 451.673 404.24 450.627 406.116 449.317C408.753 447.478 409.886 446.345 411.109 444.256C413.887 439.512 421.762 432.044 427.036 429.14C433.446 425.596 440.34 423.01 447.5 421.464C454.772 419.923 456.916 419.696 473.432 419.107C503.574 418.065 508.033 417.884 508.264 417.657C508.404 417.535 508.001 416.348 507.398 414.984C506.764 413.674 505.676 411.232 504.901 409.605C502.033 403.411 502.033 401.336 505.042 398.295C507.081 396.166 512.351 394.308 521.413 392.504C522.904 392.187 524.78 391.779 525.537 391.517C526.321 391.286 527.272 391.109 527.68 391.109C528.831 391.109 537.875 388.893 539.788 388.168C541.102 387.624 548.198 386.084 556.657 384.452C560.337 383.727 569.898 381.833 577.809 380.238C582.816 379.251 588.041 378.204 589.4 377.936C590.764 377.674 592.731 377.266 593.723 377.089C594.729 376.863 596.038 376.577 596.677 376.486C597.312 376.364 600.502 375.725 603.737 375.055C606.163 374.522 608.602 374.05 611.051 373.636C613.334 373.423 630.485 369.3 634.432 368.027C640.717 365.988 642.574 365.176 646.539 362.521C650.803 359.621 651.99 358.044 656.218 349.616C660.912 340.255 661.583 338.678 662.911 334.731C664.95 328.451 664.823 326.058 662.222 323.421C660.396 321.618 656.485 319.76 653.635 319.352C651.496 319.085 651.211 319.171 650.169 320.304C649.53 320.983 648.982 321.794 648.982 322.075C648.982 322.483 648.257 324.468 646.218 329.352C646.023 329.851 645.619 331.07 645.298 332.058C645.035 333.068 644.482 334.468 644.165 335.229C643.58 336.498 643.531 336.272 643.757 332.751C643.988 329.262 644.573 326.326 645.9 321.88C646.131 321.033 646.449 319.583 646.576 318.677L646.802 317.046L642.076 315.156C637.16 313.117 632.923 311.35 630.485 310.253C629.651 309.954 627.617 309.139 625.936 308.5C624.2 307.865 622.111 307.05 621.246 306.642C619.668 305.944 618.074 305.284 616.465 304.662C613.42 303.474 602.781 299.863 593.718 297.013C587.669 295.158 581.61 293.33 575.544 291.53C573.408 290.987 571.284 290.401 569.173 289.772C568.448 289.577 566.658 289.083 565.294 288.73C557.292 286.519 555.207 285.966 552.335 285.15C550.752 284.694 549.159 284.271 547.559 283.881C546.693 283.668 544.341 283.12 542.339 282.622C538.831 281.756 524.141 278.376 516.175 276.55L510.493 275.24C509.487 275.014 507.684 274.656 506.406 274.425C505.169 274.198 502.581 273.7 500.706 273.292C498.848 272.943 494.847 272.159 491.838 271.665C488.847 271.135 485.254 270.501 483.89 270.269C471.325 268.004 470.478 267.877 447.957 265.385C434.083 263.808 415.423 262.48 410.878 262.711C410.153 262.711 406.12 262.888 401.974 263.119ZM349.389 285.417C361.406 289.314 373.087 294.607 381.09 299.772C387.461 303.882 395.372 310.448 397.515 313.384L398.417 314.608L396.7 313.933C395.748 313.525 393.745 312.664 392.241 311.934C384.239 308.219 383.373 307.915 383.373 308.731C383.373 308.944 385.231 311.934 387.461 315.278C389.744 318.677 391.548 321.667 391.548 321.939C391.548 322.166 390.7 321.794 389.636 321.069C385.548 318.269 375.951 314.236 375.407 315.052C375.267 315.278 378.217 319.03 382.009 323.421C385.725 327.812 388.824 331.564 388.824 331.849C388.824 332.52 388.099 332.429 384.647 331.156C381.09 329.901 380.188 329.76 380.188 330.626C380.188 331.21 387.868 341.564 390.913 345.139C391.779 346.132 392.468 347.088 392.468 347.314C392.468 348.397 381.815 341.478 374.275 335.51C363.49 326.91 353.068 315.369 347.586 305.831C343.068 298.037 341.527 293.846 341.527 289.224C341.527 286.519 341.654 285.97 342.66 285.01C343.249 284.393 343.988 283.877 344.255 283.877C344.518 283.877 346.802 284.57 349.389 285.417ZM492.989 301.526C497.343 302.305 503.306 303.334 506.175 303.846C509.043 304.344 512.546 304.924 513.91 305.156C515.273 305.423 517.217 305.776 518.228 306.003C519.225 306.234 521.187 306.642 522.551 306.959C527.046 307.956 528.142 308.182 535.506 309.9C543.417 311.758 545.153 312.111 547.559 312.605C549.611 313.013 551.646 313.792 551.646 314.146C551.646 314.291 550.16 315.156 548.338 316.094C544.604 317.952 543.825 318.092 528.459 318.677C518.001 319.121 512.405 318.994 507.308 318.178C497.022 316.592 491.716 313.706 487.574 307.457C486.124 305.332 485.168 304.693 481.837 303.846C480.614 303.474 478.743 302.976 477.75 302.659C476.74 302.342 475.022 301.843 473.926 301.526C470.65 300.679 472.512 300.18 479.114 300.18C483.659 300.18 486.849 300.484 492.989 301.526ZM547.699 364.737C547.327 364.826 546.939 364.826 546.566 364.737C546.249 364.592 546.476 364.506 547.115 364.506C547.735 364.506 547.966 364.596 547.704 364.732L547.699 364.737ZM545.737 365.267C545.737 365.494 545.207 365.811 544.514 365.956C543.1 366.309 537.558 367.904 535.737 368.484C535.098 368.715 533.045 369.354 531.187 369.889C526.497 371.248 515.133 374.946 512.088 376.133C506.351 378.308 492.885 385.445 490.991 387.357C488.159 390.116 487.289 393.089 487.714 398.789C487.837 401.195 488.159 404.227 488.439 405.532C488.988 408.386 488.666 409.161 487.574 407.748C486.477 406.347 484.157 401.286 483.482 398.789C483.111 397.675 482.707 396.17 482.476 395.445C481.661 392.876 481.978 389.831 483.256 387.991C484.973 385.354 491.167 381.158 498.44 377.674C501.893 375.993 511.943 372.553 521.187 369.848C523.045 369.304 525.097 368.666 525.736 368.489C532.284 366.273 545.737 364.148 545.737 365.267ZM401.888 368.308C401.743 368.434 401.34 368.489 401.018 368.344C400.646 368.221 400.791 368.081 401.285 368.081C401.797 368.027 402.065 368.172 401.888 368.308Z" fill="#850000"/>
<path d="M306.502 455.801V487.466H329.158C346.169 487.466 351.937 487.33 352.345 486.922C353.033 486.242 353.178 424.137 352.485 424.137C352.259 424.137 351.941 424.49 351.796 424.898C351.615 425.306 346.662 433.041 340.749 442.085C331.388 456.386 328.787 459.87 328.787 458.103C328.787 457.786 313.281 433.589 309.316 427.744C308.785 426.987 308.316 426.189 307.916 425.356C307.544 424.667 307.1 424.132 306.874 424.132C306.679 424.132 306.502 438.383 306.502 455.801Z" fill="#850000"/>
</svg>
