<svg width="750" height="750" viewBox="0 0 750 750" fill="none" xmlns="http://www.w3.org/2000/svg">
<rect width="750" height="750" rx="32" fill="#001E24"/>
<g clip-path="url(#clip0_188_225)">
<path d="M257.538 426.161L275.165 472.452C279.125 482.963 280.777 490.3 280.116 494.482C289.757 473.584 296.492 450.809 300.324 426.161H321.519C312.406 466.29 300.385 495.451 285.465 513.643C273.84 527.661 261.104 534.669 247.237 534.669C243.54 534.669 238.981 533.766 233.571 531.97V522.296C236.214 522.611 239.315 522.778 242.882 522.778C249.351 522.778 254.565 521.327 258.532 518.431C263.282 514.902 265.659 510.935 265.659 506.539C265.659 503.537 263.805 497.376 260.113 488.056L235.553 426.161H257.538ZM122.637 397.708L154.923 477.439H155.121L187.605 397.708H214.145C219.956 437.248 223.388 473.427 224.442 506.22H202.066C201.279 475.565 199.098 446.739 195.532 419.737H195.335L161.262 506.22H144.223L110.357 419.737H110.157C107.645 445.669 106.064 474.495 105.404 506.22H85C86.3186 467.637 89.6185 431.469 94.8997 397.708H122.637Z" fill="#00758F"/>
<path d="M484.314 396.098C519.042 396.098 536.408 414.057 536.408 449.956C536.408 469.464 531.185 484.2 520.75 494.155C518.869 495.974 516.791 497.545 514.603 499.002L539.179 508.837L539.155 508.836L530.429 521.033L498.424 505.918C493.119 507.189 487.282 507.825 480.92 507.825C463.869 507.825 451.132 503.802 442.709 495.768C433.466 486.879 428.847 472.886 428.847 453.813C428.847 434.415 434.059 419.735 444.497 409.767C454.004 400.65 467.279 396.098 484.314 396.098ZM377.965 396.256C390.377 396.256 401.665 398.945 411.83 404.302L406.666 413.615C397.968 410.622 389.39 409.119 380.933 409.119C374.071 409.119 368.783 410.456 365.097 413.146C361.389 415.813 359.097 419.244 359.097 423.427C359.097 429.853 364.755 435.428 375.2 440.137C378.01 441.374 381.67 443.023 385.431 444.732L386.21 445.087C386.34 445.146 386.47 445.205 386.6 445.264L387.381 445.62C387.511 445.679 387.641 445.738 387.771 445.798L388.55 446.153C396.458 449.761 403.898 453.205 403.898 453.205C414.343 459.206 419.548 465.604 419.548 476.142C419.548 485.345 415.382 492.9 407.077 498.811C398.765 504.696 387.599 507.646 373.615 507.646C360.537 507.646 347.862 504.25 335.584 497.514L341.328 488.193C351.894 492.48 361.455 494.62 370.039 494.62C378.092 494.62 384.395 493.166 388.955 490.292C393.505 487.398 396.231 483.361 396.231 478.241C396.231 471.798 390.695 466.29 380.536 461.67C377.899 460.496 374.52 458.961 371.026 457.363L370.248 457.007C368.819 456.352 367.379 455.691 365.969 455.042L365.203 454.69C358.345 451.532 352.415 448.773 352.415 448.773C342.26 442.761 337.168 436.311 337.168 425.682C337.168 416.892 340.965 409.787 348.549 404.381C356.15 398.965 365.956 396.256 377.965 396.256ZM577.221 397.708V492.872H619.405V506.22H555.827V397.708H577.221ZM642.846 492.913V495.169H638.207V506.209H634.662V495.169H629.843V492.913H642.846ZM651.41 492.913L655.863 501.976L659.953 492.913H664.979V506.209H661.637V496.09L656.981 506.209H654.572L649.908 496.09H649.729V506.209H646.567V492.913H651.41ZM482.129 409.443C461.663 409.443 451.425 423.113 451.425 450.437C451.425 466.089 454.138 477.439 459.554 484.513C464.569 491.06 472.426 494.326 483.123 494.326C503.588 494.326 513.826 480.549 513.826 453.007C513.826 437.574 511.113 426.322 505.704 419.245C500.682 412.712 492.829 409.443 482.129 409.443Z" fill="#F29111"/>
<path d="M428.488 221.724C435.278 208.221 459.016 218.446 468.228 223.164C470.486 224.343 473.075 226.836 475.663 227.758C479.702 227.887 483.737 228.142 487.783 228.279C495.37 229.722 502.477 230.901 508.455 233.658C536.242 246.902 554.329 260.399 570.977 282.692C574.532 287.415 576.31 292.525 579.216 297.634C583.248 305.251 587.78 313.246 592.461 320.449C594.556 323.863 596.178 327.66 599.088 330.544C600.224 331.862 603.451 332.251 605.381 333.039C610.714 335.273 617.175 336.969 622.191 339.592C631.559 344.319 640.616 349.953 648.849 355.72C651.917 357.946 654.009 361.098 656.933 363.453V364.641C654.337 365.286 651.752 365.946 649.163 366.474C643.509 367.651 638.5 367.384 633.016 368.561C629.626 369.356 625.418 370.407 621.863 370.673C622.022 370.802 622.191 370.941 622.191 370.941C624.283 375.777 635.597 379.711 640.772 382.603C647.057 386.275 652.88 390.728 657.568 395.841C659.187 397.146 660.806 398.334 662.418 399.635C663.543 400.953 663.86 402.658 665 403.835V404.232C663.738 403.871 662.831 403.184 661.97 402.465L661.457 402.032C660.944 401.6 660.426 401.177 659.836 400.827C656.27 398.856 652.729 396.497 649.163 394.665C643.033 391.516 635.922 389.689 629.626 386.529C626.067 384.693 622.674 382.603 619.281 380.505C616.205 378.664 612.819 375.13 610.886 372.508C609.747 371.059 609.592 369.356 608.291 368.309C608.523 366.558 610.505 366.038 612.504 365.61L612.964 365.513C613.653 365.368 614.329 365.223 614.918 365.032C623.316 362.145 633.33 361.098 646.26 361.36C645.773 358.732 637.693 355.458 635.114 353.885C629.937 350.864 624.455 347.713 618.963 344.964C616.054 343.524 611.038 342.474 607.814 341.297C603.451 339.854 593.755 338.412 591.339 335.663C587.232 331.33 584.282 326.161 581.418 320.94L580.639 319.515C580.379 319.04 580.119 318.565 579.858 318.091C576.472 311.804 572.268 305.249 568.875 298.812C567.101 295.671 566.286 292.915 564.343 289.903C552.555 271.42 535.106 255.946 513.95 245.063C506.999 241.522 499.246 238.244 490.689 236.017C485.839 234.832 480.02 235.488 474.852 234.577H471.452C468.549 233.916 466.126 231.426 463.862 230.112C458.86 227.364 453.852 225.518 447.87 223.557C445.775 222.77 439.789 220.938 437.701 222.38C436.407 222.644 435.751 223.039 435.433 224.089C434.146 225.658 435.278 228.019 436.079 229.465C438.505 233.656 441.895 236.146 444.97 239.687C447.708 242.827 451.108 246.368 453.048 249.783C457.235 257.122 459.185 265.255 463.065 272.594C464.504 275.353 466.779 278.494 468.874 280.984C470.648 282.959 473.876 284.388 474.852 286.889C476.799 289.511 471.939 298.164 470.814 300.913C466.606 311.665 467.421 326.611 472.267 335.932C472.353 336.095 472.439 336.259 472.525 336.423L472.784 336.921C474.553 340.334 476.447 344.01 481.152 344.965C481.476 344.705 481.152 344.842 481.794 344.705C482.933 337.49 483.254 330.543 486.326 324.898C488.1 321.369 491.645 318.874 494.075 315.993C495.694 316.778 495.694 319.145 496.661 320.711C498.763 324.773 501.02 329.226 503.612 333.3C508.932 341.69 514.917 349.824 521.7 357.163C523.971 359.784 527.195 362.669 530.101 365.031C531.396 365.944 532.845 366.473 533.819 367.649H534.136V368.045C529.29 366.599 526.218 362.541 522.352 360.172C515.076 355.719 506.36 349.03 501.345 342.613C499.246 338.929 496.978 335.398 494.717 331.732V331.467C493.751 332.515 494.075 333.554 493.592 335.139C491.493 341.69 493.109 349.164 485.839 351.52C477.6 354.28 471.452 347.066 468.874 343.789C460.631 332.908 458.374 314.554 464.186 299.738C465.477 296.458 465.653 292.525 467.907 289.905C467.421 287.538 465.167 286.891 463.862 285.44C461.601 282.961 459.665 280.073 457.894 277.319C454.494 271.94 452.074 265.514 449.492 259.746C448.357 257.39 448.032 255.026 446.9 252.796C444.97 249.393 441.412 245.978 438.668 242.966C434.95 238.638 424.125 230.251 428.488 221.724ZM481.473 247.411C481.904 247.761 482.425 248.067 482.964 248.368L483.615 248.73C484.482 249.215 485.32 249.727 485.836 250.425C486.65 251.347 486.802 252.257 487.779 253.182C487.779 256.333 486.65 258.429 484.372 259.734C484.372 259.734 484.217 259.871 484.058 260C482.767 257.899 481.635 255.809 480.334 253.711C478.732 251.879 476.468 250.425 475.163 248.333H474.849V248.069C476.799 247.68 478.732 247.411 481.473 247.411Z" fill="#00758F"/>
</g>
<defs>
<clipPath id="clip0_188_225">
<rect width="580" height="320" fill="white" transform="translate(85 215)"/>
</clipPath>
</defs>
</svg>
