<svg width="750" height="750" viewBox="0 0 750 750" fill="none" xmlns="http://www.w3.org/2000/svg">
<rect width="750" height="750" rx="32" fill="white"/>
<g clip-path="url(#clip0_188_87)">
<path d="M221.855 298.5H331.249V306.448H231.883V366.263H325.324V374.211H231.883V439.882H332.388V447.829H221.855V298.5ZM341.05 298.5H352.672L404.178 364.172L456.823 298.499L528.429 215.083L410.787 371.074L471.409 447.829H459.33L404.178 377.975L348.797 447.829H336.947L398.024 371.073L341.05 298.5ZM475.739 306.448V298.499H600.403V306.447H542.97V447.828H532.942V306.448H475.739ZM85 298.499H97.5346L270.379 534.917L198.952 447.828L95.483 309.794L95.0277 447.83H85L85 298.499ZM599.392 437.482C597.343 437.482 595.807 436.032 595.807 434.156C595.807 432.282 597.343 430.83 599.392 430.83C601.465 430.83 602.977 432.281 602.977 434.156C602.977 436.031 601.465 437.482 599.392 437.482ZM609.245 428.732H614.611C614.684 431.388 616.806 433.174 619.928 433.174C623.416 433.174 625.391 431.255 625.391 427.661V404.891H630.855V427.682C630.855 434.156 626.757 437.885 619.976 437.885C613.61 437.885 609.245 434.268 609.245 428.731V428.732ZM638.001 428.442H643.415C643.879 431.5 647.147 433.442 651.855 433.442C656.245 433.442 659.464 431.366 659.464 428.509C659.464 426.054 657.415 424.58 652.757 423.576L648.22 422.571C641.853 421.209 638.952 418.396 638.952 413.664C638.952 407.928 644.074 404.11 651.756 404.11C658.902 404.11 664.122 407.927 664.439 413.352H659.122C658.61 410.383 655.78 408.53 651.683 408.53C647.367 408.53 644.489 410.428 644.489 413.329C644.489 415.628 646.341 416.946 650.927 417.927L654.805 418.798C662.024 420.339 665 423.018 665 427.862C665 434.022 659.781 437.885 651.44 437.885C643.635 437.885 638.39 434.201 638.001 428.441V428.442Z" fill="black"/>
</g>
<defs>
<clipPath id="clip0_188_87">
<rect width="580" height="320" fill="white" transform="translate(85 215)"/>
</clipPath>
</defs>
</svg>
