<svg width="750" height="750" viewBox="0 0 750 750" fill="none" xmlns="http://www.w3.org/2000/svg">
<rect width="750" height="750" rx="32" fill="white"/>
<path d="M375 668.905C365.994 668.905 357.588 666.741 349.783 662.954L269.928 620.213C257.919 614.262 263.923 612.098 267.526 611.016C283.737 606.146 286.739 605.064 303.551 596.408C305.352 595.326 307.754 595.867 309.555 596.949L370.797 629.952C373.199 631.034 376.201 631.034 378.002 629.952L617.567 504.975C619.969 503.893 621.17 501.729 621.17 499.024V249.611C621.17 246.906 619.969 244.742 617.567 243.66L378.002 119.224C375.6 118.142 372.598 118.142 370.797 119.224L131.232 243.66C128.83 244.742 127.629 247.447 127.629 249.611V499.024C127.629 501.188 128.83 503.893 131.232 504.975L196.677 539.059C232.101 555.29 254.317 536.354 254.317 517.418V271.252C254.317 268.006 257.319 264.76 261.522 264.76H292.143C295.745 264.76 299.348 267.465 299.348 271.252V517.418C299.348 560.159 273.53 585.046 228.499 585.046C214.689 585.046 203.882 585.046 173.261 571.521L110.217 539.059C94.6066 530.944 85 515.795 85 499.565V250.152C85 233.922 94.6066 218.773 110.217 210.657L349.783 85.6808C364.793 78.1064 385.207 78.1064 400.217 85.6808L639.783 210.657C655.393 218.773 665 233.922 665 250.152V499.565C665 515.795 655.393 530.944 639.783 539.059L400.217 664.036C392.412 667.282 383.406 668.905 375 668.905ZM448.851 497.4C343.778 497.4 322.164 454.118 322.164 417.329C322.164 414.083 325.166 410.837 329.369 410.837H360.59C364.193 410.837 367.195 413.001 367.195 416.247C371.998 444.921 385.807 458.988 449.451 458.988C499.886 458.988 521.501 448.708 521.501 424.362C521.501 410.296 515.497 400.016 436.843 392.983C371.398 387.031 330.569 374.047 330.569 326.978C330.569 283.155 371.398 257.186 439.845 257.186C516.698 257.186 554.524 280.991 559.327 332.929C559.327 334.552 558.727 336.175 557.526 337.798C556.325 338.88 554.524 339.962 552.723 339.962H521.501C518.499 339.962 515.497 337.798 514.896 335.093C507.691 305.337 489.079 295.598 439.845 295.598C384.607 295.598 378.002 312.911 378.002 325.896C378.002 341.585 385.807 346.455 460.259 355.111C534.11 363.767 568.934 376.211 568.934 422.739C568.333 470.349 525.104 497.4 448.851 497.4Z" fill="#539E43"/>
</svg>
