<svg width="750" height="750" viewBox="0 0 750 750" fill="none" xmlns="http://www.w3.org/2000/svg">
<rect width="750" height="750" rx="32" fill="#002746"/>
<g clip-path="url(#clip0_188_229)">
<path d="M662.753 432.275C659.275 422.063 650.165 414.95 638.384 413.243C632.828 412.439 626.467 412.781 618.938 414.286C605.815 416.911 596.08 417.911 588.975 418.104C615.793 374.202 637.6 324.138 650.154 277.011C670.454 200.808 659.606 166.093 646.93 150.391C613.383 108.828 564.438 86.5003 505.392 85.8171C473.893 85.4436 446.241 91.4737 431.815 95.8101C418.385 93.5123 403.944 92.2294 388.791 91.9921C360.387 91.5528 335.291 97.5565 313.847 109.896C301.975 106.003 282.921 100.516 260.917 97.0139C209.166 88.7761 167.456 95.195 136.947 116.093C100.003 141.395 82.8775 185.356 86.0448 246.755C87.0508 266.249 98.2973 325.562 116.005 381.812C126.183 414.143 137.035 440.992 148.261 461.62C164.182 490.869 181.217 508.094 200.341 514.28C211.06 517.742 230.535 520.167 251.019 503.626C253.615 506.675 257.079 509.704 261.676 512.518C267.515 516.088 274.654 519.005 281.784 520.734C307.478 526.962 331.546 525.404 352.079 516.674C352.206 520.216 352.303 523.599 352.385 526.52C352.521 531.259 352.657 535.905 352.836 540.25C354.052 569.629 356.114 592.473 362.222 608.457C362.558 609.336 363.008 610.676 363.484 612.097C366.531 621.143 371.627 636.288 384.591 648.148C398.015 660.434 414.252 664.202 429.124 664.202C436.582 664.202 443.699 663.253 449.94 661.957C472.189 657.332 497.457 650.29 515.736 625.053C533.019 601.197 541.42 565.264 542.94 508.648C543.137 507.046 543.318 505.517 543.493 504.061L543.855 501.069L547.926 501.416L548.975 501.484C571.636 502.486 599.345 497.826 616.362 490.162C629.808 484.112 672.898 462.054 662.753 432.275Z" fill="black"/>
<path d="M624.007 438.066C556.627 451.543 551.994 429.424 551.994 429.424C623.134 327.071 652.875 197.149 627.212 165.351C557.195 78.612 435.996 119.634 433.973 120.697L433.322 120.812C420.01 118.131 405.113 116.537 388.368 116.271C357.882 115.788 334.754 124.021 317.205 136.925C317.205 136.925 100.996 50.5617 111.053 245.541C113.192 287.02 172.37 559.397 242.953 477.127C268.752 447.042 293.681 421.606 293.681 421.606C306.06 429.58 320.882 433.648 336.419 432.188L337.627 431.195C337.251 434.929 337.423 438.582 338.11 442.908C319.926 462.606 325.27 466.064 288.921 473.32C252.138 480.67 273.745 493.754 287.853 497.176C304.957 501.322 344.524 507.196 371.258 470.908L370.193 475.048C377.316 480.582 382.319 511.038 381.48 538.649C380.642 566.258 380.083 585.213 385.694 600.019C391.311 614.825 396.905 648.139 444.691 638.212C484.618 629.915 505.31 608.415 508.19 572.551C510.231 547.056 514.855 550.825 515.145 528.03L518.854 517.239C523.13 482.678 519.534 471.527 544.132 476.714L550.113 477.223C568.215 478.021 591.914 474.398 605.823 468.131C635.77 454.656 653.532 432.155 624.002 438.066H624.007Z" fill="#336791"/>
<path d="M329.861 264.09C323.789 263.271 318.29 264.029 315.508 266.072C313.945 267.22 313.46 268.552 313.328 269.468C312.979 271.895 314.733 274.58 315.811 275.964C318.861 279.883 323.315 282.576 327.724 283.169C328.363 283.257 329 283.296 329.632 283.296C336.984 283.296 343.67 277.745 344.259 273.648C344.995 268.517 337.312 265.094 329.861 264.09ZM531.012 264.253C530.432 260.23 523.05 259.084 516.045 260.028C509.049 260.973 502.266 264.035 502.832 268.066C503.285 271.201 509.124 276.552 516.034 276.552C516.618 276.552 517.207 276.515 517.801 276.434C522.414 275.814 525.799 272.974 527.407 271.337C529.854 268.842 531.272 266.061 531.012 264.253Z" fill="white"/>
<path d="M646.427 436.535C643.858 429.002 635.588 426.579 621.85 429.33C581.057 437.493 566.448 431.838 561.652 428.414C593.359 381.579 619.443 324.964 633.515 272.143C640.181 247.122 643.862 223.885 644.164 204.945C644.497 184.157 640.845 168.881 633.314 159.549C602.95 121.93 558.385 101.75 504.44 101.197C467.354 100.793 436.021 109.995 429.947 112.583C417.155 109.498 403.21 107.605 388.028 107.363C360.188 106.926 336.122 113.389 316.199 126.563C307.544 123.439 285.178 115.994 257.825 111.721C210.537 104.34 172.959 109.933 146.143 128.353C114.146 150.334 99.3737 189.625 102.235 245.132C103.198 263.807 114.173 321.256 131.491 376.274C154.288 448.687 179.069 489.681 205.142 498.114C208.194 499.101 211.712 499.79 215.593 499.79C225.105 499.79 236.766 495.634 248.898 481.492C263.696 464.279 279.004 447.484 294.802 431.129C305.052 436.462 316.312 439.441 327.828 439.74C327.851 440.032 327.88 440.324 327.907 440.614C325.925 442.906 323.984 445.232 322.085 447.589C314.105 457.411 312.444 459.456 286.759 464.583C279.452 466.046 260.047 469.923 259.762 483.113C259.454 497.523 282.701 503.575 285.35 504.217C294.58 506.458 303.473 507.563 311.953 507.563C332.577 507.563 350.727 500.99 365.231 488.273C364.785 539.646 366.994 590.268 373.356 605.691C378.567 618.318 391.295 649.176 431.501 649.174C437.4 649.174 443.894 648.508 451.037 647.023C492.999 638.302 511.221 620.32 518.27 580.675C522.042 559.487 528.515 508.894 531.56 481.755C537.985 483.699 546.257 484.589 555.199 484.587C573.85 484.587 595.371 480.745 608.868 474.671C624.029 467.843 651.389 451.091 646.427 436.535ZM546.499 253.15C546.361 261.162 545.224 268.435 544.019 276.027C542.72 284.193 541.379 292.635 541.042 302.883C540.708 312.856 541.993 323.224 543.235 333.253C545.745 353.507 548.321 374.358 538.35 394.933C536.694 392.087 535.218 389.146 533.932 386.126C532.693 383.213 530.001 378.534 526.274 372.058C511.776 346.848 477.826 287.813 495.206 263.723C500.383 256.553 513.521 249.181 546.499 253.15ZM506.525 117.42C554.86 118.454 593.094 135.987 620.164 169.527C640.926 195.253 618.064 312.311 551.878 413.298C551.212 412.477 550.543 411.659 549.871 410.844L549.032 409.829C566.136 382.442 562.792 355.345 559.814 331.322C558.591 321.463 557.436 312.151 557.73 303.403C558.034 294.133 559.298 286.181 560.521 278.492C562.023 269.017 563.553 259.213 563.131 247.656C563.446 246.444 563.573 245.011 563.408 243.311C562.332 232.228 549.282 199.06 522.683 169.039C508.133 152.618 486.916 134.242 457.945 121.848C470.406 119.344 487.446 117.009 506.525 117.42ZM236.059 471.14C222.692 486.724 213.462 483.737 210.426 482.757C190.647 476.36 167.696 435.825 147.462 371.549C129.953 315.931 119.721 260.004 118.91 244.322C116.355 194.723 128.754 160.158 155.767 141.582C199.73 111.355 272.008 129.447 301.051 138.623C300.634 139.023 300.199 139.396 299.786 139.802C252.127 186.47 253.257 266.203 253.375 271.078C253.371 272.958 253.534 275.621 253.756 279.283C254.576 292.694 256.103 317.654 252.025 345.919C248.237 372.186 256.588 397.894 274.932 416.455C276.815 418.356 278.794 420.165 280.862 421.876C272.696 430.356 254.95 449.107 236.059 471.14ZM286.988 405.253C272.202 390.293 265.487 369.486 268.562 348.16C272.866 318.302 271.278 292.296 270.424 278.325C270.304 276.37 270.197 274.657 270.136 273.306C277.098 267.319 309.363 250.558 332.373 255.67C342.872 258.001 349.27 264.934 351.93 276.858C365.696 338.593 353.751 364.323 344.154 385.001C342.176 389.261 340.307 393.288 338.712 397.453L337.475 400.673C334.344 408.814 331.43 416.384 329.625 423.572C313.906 423.528 298.615 417.017 286.988 405.251V405.253ZM289.401 488.51C284.811 487.399 280.683 485.468 278.261 483.866C280.284 482.944 283.884 481.687 290.128 480.439C320.345 474.409 325.012 470.152 335.203 457.606C337.538 454.729 340.187 451.469 343.855 447.497L343.86 447.492C349.322 441.561 351.821 442.567 356.352 444.391C360.025 445.862 363.602 450.326 365.052 455.238C365.739 457.558 366.509 461.96 363.987 465.387C342.7 494.288 311.679 493.916 289.401 488.51ZM447.539 631.193C410.573 638.873 397.485 620.585 388.859 599.679C383.293 586.182 380.556 525.319 382.498 458.105C382.523 457.211 382.391 456.348 382.137 455.535C381.91 453.93 381.565 452.342 381.104 450.785C378.218 441.005 371.183 432.825 362.744 429.433C359.39 428.086 353.237 425.615 345.842 427.449C347.419 421.149 350.154 414.034 353.119 406.33L354.363 403.09C355.763 399.436 357.521 395.651 359.379 391.644C369.423 370.011 383.177 340.379 368.249 273.437C362.658 248.364 343.984 236.119 315.677 238.964C298.708 240.666 283.182 247.305 275.438 251.112C273.772 251.929 272.25 252.72 270.827 253.489C272.989 228.226 281.154 181.013 311.699 151.142C330.932 132.338 356.545 123.05 387.752 123.551C449.241 124.526 488.672 155.123 510.925 180.62C530.101 202.59 540.484 224.722 544.628 236.659C513.464 233.586 492.269 239.55 481.526 254.444C458.151 286.842 494.313 349.722 511.693 379.942C514.88 385.48 517.631 390.267 518.496 392.301C524.156 405.6 531.483 414.48 536.832 420.96C538.472 422.946 540.063 424.872 541.273 426.555C531.834 429.193 514.88 435.289 516.425 465.761C515.179 481.05 506.319 552.633 501.817 577.924C495.874 611.337 483.193 623.782 447.539 631.196V631.193ZM601.837 459.988C592.186 464.331 576.034 467.588 560.691 468.289C543.744 469.058 535.117 466.448 533.087 464.842C532.135 445.854 539.424 443.87 547.138 441.77C548.35 441.44 549.533 441.117 550.675 440.731C551.384 441.291 552.161 441.847 553.013 442.392C566.634 451.108 590.928 452.048 625.228 445.184L625.604 445.111C620.977 449.305 613.061 454.933 601.837 459.988Z" fill="white"/>
</g>
<defs>
<clipPath id="clip0_188_229">
<rect width="580" height="580" fill="white" transform="translate(85 85)"/>
</clipPath>
</defs>
</svg>
