<svg width="750" height="750" viewBox="0 0 750 750" fill="none" xmlns="http://www.w3.org/2000/svg">
<rect width="750" height="750" rx="32" fill="#02131B"/>
<g clip-path="url(#clip0_188_253)">
<path d="M661.177 528.245L420.314 98.5562C414.217 87.7829 401.58 80.6849 387.399 80.0684C373.185 79.2684 359.621 85.1753 352.207 95.394L90.9641 450.838C82.8539 461.795 83.0245 475.705 91.4018 486.519L219.125 652.674C229.049 665.483 247.822 671.282 265.26 666.925L635.913 574.825C647.204 572.052 656.51 565.302 661.422 556.323C666.268 547.386 666.185 537.111 661.195 528.231L661.177 528.245ZM607.252 546.674L292.731 624.802C283.136 627.2 273.927 620.213 275.923 612.08L388.292 160.094C390.393 151.637 404.294 150.298 408.689 158.123L616.706 529.201C618.567 532.548 618.59 536.411 616.767 539.773C614.945 543.135 611.461 545.657 607.234 546.674H607.252Z" fill="white"/>
</g>
<defs>
<clipPath id="clip0_188_253">
<rect width="580" height="590" fill="white" transform="translate(85 80)"/>
</clipPath>
</defs>
</svg>
