<svg width="750" height="750" viewBox="0 0 750 750" fill="none" xmlns="http://www.w3.org/2000/svg">
<rect width="750" height="750" rx="32" fill="#2E2789"/>
<g clip-path="url(#clip0_213_29)">
<path d="M117 370.603C117.215 369.894 117.387 369.163 117.484 368.432C117.882 360.939 117.968 353.36 118.774 345.857C120.032 321.562 128.137 298.127 142.155 278.239C148.474 269.687 156.712 262.737 166.206 257.948C175.7 253.159 186.185 250.665 196.819 250.665H370.808C374.194 250.665 374.194 250.665 374.194 247.279V235.185C374.194 232.691 373.463 232.132 371.13 232.132H252.697C250.676 232.132 249.956 231.563 249.956 229.466V170.384C250.343 161.827 253.912 153.722 259.954 147.648C267.977 139.109 277.967 132.661 289.054 128.868C302.593 124 316.669 120.78 330.979 119.279C350.539 117.046 370.251 116.452 389.91 117.505C411.109 117.903 432.083 121.794 452.002 129.029C465.665 133.637 477.742 142.024 486.832 153.217C494.141 162.622 497.754 174.376 496.991 186.262C496.507 196.26 496.991 206.332 496.991 216.405V272.198C496.991 283.152 496.991 294.192 496.507 305.071C496.429 316.869 492.771 328.365 486.019 338.039C479.266 347.713 469.736 355.11 458.689 359.251C447.971 363.639 436.482 365.829 424.902 365.69H301.706C288.679 365.441 275.839 368.817 264.619 375.441C250.27 384.459 240.048 398.763 236.164 415.259C233.826 423.574 232.657 432.174 232.692 440.811V496.668C232.692 500.377 232.691 500.302 228.983 500.377C215.599 500.377 202.215 500.786 188.67 500.377C175.414 499.842 162.77 494.655 152.959 485.725C141.553 475.351 133.05 462.183 128.287 447.519C123.461 434.19 120.396 420.287 119.172 406.164C118.365 397.134 118.043 388.104 117.484 379.16C117.379 378.159 117.217 377.165 117 376.182V370.603Z" fill="#3772A4"/>
<path d="M280.433 178.683C280.464 183.156 281.82 187.519 284.328 191.223C286.836 194.927 290.385 197.805 294.526 199.494C298.668 201.184 303.217 201.609 307.6 200.717C311.983 199.825 316.004 197.655 319.155 194.481C322.307 191.307 324.448 187.271 325.309 182.882C326.17 178.493 325.712 173.947 323.993 169.817C322.274 165.688 319.371 162.16 315.65 159.678C311.929 157.197 307.556 155.872 303.083 155.872C297.062 155.917 291.303 158.34 287.06 162.613C282.817 166.886 280.435 172.662 280.433 178.683Z" fill="black"/>
<path d="M280.433 178.683C280.433 175.705 281.019 172.755 282.159 170.003C283.299 167.251 284.97 164.751 287.076 162.645C289.182 160.538 291.683 158.867 294.435 157.728C297.187 156.588 300.136 156.001 303.115 156.001C306.094 156.001 309.043 156.588 311.795 157.728C314.547 158.867 317.048 160.538 319.154 162.645C321.26 164.751 322.931 167.251 324.071 170.003C325.211 172.755 325.798 175.705 325.798 178.683C325.798 184.699 323.408 190.469 319.154 194.722C314.9 198.976 309.131 201.366 303.115 201.366C297.099 201.366 291.33 198.976 287.076 194.722C282.822 190.469 280.433 184.699 280.433 178.683Z" fill="white"/>
<path d="M633 379.311C632.785 380.02 632.613 380.751 632.517 381.493C632.119 388.986 632.033 396.565 631.227 404.068C629.967 428.361 621.861 451.803 607.845 471.686C601.534 480.251 593.3 487.216 583.805 492.018C574.311 496.821 563.822 499.327 553.182 499.335H379.193C375.807 499.335 375.807 499.335 375.807 502.721V514.815C375.807 517.309 376.538 517.878 378.87 517.878H497.314C499.324 517.878 500.055 518.437 500.055 520.533V579.616C499.661 588.173 496.097 596.277 490.058 602.352C482.031 610.893 472.037 617.34 460.947 621.132C447.435 625.993 433.388 629.213 419.108 630.721C399.543 632.957 379.827 633.548 360.165 632.495C338.978 632.102 318.001 628.209 298.084 620.971C284.421 616.363 272.344 607.976 263.254 596.783C255.946 587.378 252.332 575.624 253.095 563.738C253.579 553.74 253.095 543.667 253.095 533.595V477.802C253.095 466.848 253.095 455.808 253.579 444.929C253.655 433.132 257.311 421.636 264.061 411.962C270.812 402.288 280.341 394.89 291.387 390.749C302.104 386.361 313.594 384.171 325.174 384.309H448.294C461.321 384.559 474.161 381.183 485.381 374.559C499.747 365.52 509.971 351.182 513.837 334.655C516.174 326.34 517.342 317.74 517.309 309.103V253.246C517.309 249.537 517.309 249.623 521.018 249.537C534.401 249.537 547.785 249.139 561.33 249.537C574.589 250.078 587.233 255.273 597.042 264.211C608.447 274.584 616.95 287.753 621.713 302.416C626.522 315.798 629.558 329.752 630.743 343.922C631.549 352.952 631.872 361.982 632.441 370.926C632.549 371.904 632.71 372.872 632.925 373.828C632.979 375.602 633 377.429 633 379.311Z" fill="#FFDA4B"/>
<path d="M469.568 568.414C469.536 563.941 468.18 559.578 465.672 555.874C463.164 552.171 459.615 549.293 455.474 547.603C451.333 545.914 446.783 545.488 442.4 546.38C438.017 547.272 433.997 549.442 430.845 552.616C427.693 555.79 425.552 559.826 424.691 564.215C423.83 568.605 424.288 573.151 426.007 577.28C427.726 581.409 430.629 584.937 434.35 587.419C438.072 589.901 442.444 591.225 446.917 591.226C452.938 591.18 458.698 588.757 462.94 584.484C467.183 580.212 469.565 574.435 469.568 568.414Z" fill="black"/>
<path d="M469.568 568.414C469.568 574.43 467.178 580.199 462.925 584.453C458.671 588.707 452.901 591.096 446.886 591.096C440.87 591.096 435.1 588.707 430.847 584.453C426.593 580.199 424.203 574.43 424.203 568.414C424.203 562.398 426.593 556.629 430.847 552.375C435.1 548.121 440.87 545.731 446.886 545.731C452.901 545.731 458.671 548.121 462.925 552.375C467.178 556.629 469.568 562.398 469.568 568.414Z" fill="white"/>
</g>
<defs>
<clipPath id="clip0_213_29">
<rect width="516" height="516" fill="white" transform="translate(117 117)"/>
</clipPath>
</defs>
</svg>
