<svg width="750" height="750" viewBox="0 0 750 750" fill="none" xmlns="http://www.w3.org/2000/svg">
<rect width="750" height="750" rx="32" fill="white"/>
<path d="M363.4 665C314.176 665 266.968 645.446 232.161 610.639C197.354 575.832 177.8 528.624 177.8 479.4C177.8 430.176 197.354 382.968 232.161 348.161C266.968 313.354 314.176 293.8 363.4 293.8V665ZM363.4 85V270.6H177.8V85H363.4ZM479.4 270.6C454.788 270.6 431.184 260.823 413.78 243.42C396.377 226.016 386.6 202.412 386.6 177.8C386.6 153.188 396.377 129.584 413.78 112.18C431.184 94.7771 454.788 85 479.4 85C504.012 85 527.616 94.7771 545.019 112.18C562.423 129.584 572.2 153.188 572.2 177.8C572.2 202.412 562.423 226.016 545.019 243.42C527.616 260.823 504.012 270.6 479.4 270.6Z" fill="black"/>
</svg>
