<svg width="750" height="750" viewBox="0 0 750 750" fill="none" xmlns="http://www.w3.org/2000/svg">
<rect width="750" height="750" rx="32" fill="#051920"/>
<path d="M375 419.841C400.025 419.841 420.312 399.554 420.312 374.529C420.312 349.503 400.025 329.216 375 329.216C349.975 329.216 329.688 349.503 329.688 374.529C329.688 399.554 349.975 419.841 375 419.841Z" fill="#00D8FF"/>
<path d="M375 478.421C320.537 479.738 266.21 472.397 214.05 456.671C189.955 449.033 167.482 437.001 147.767 421.182C140.244 415.778 133.979 408.811 129.402 400.758C124.824 392.705 122.044 383.757 121.25 374.529C121.25 344.568 154.165 315.205 209.301 295.993C262.856 278.969 318.811 270.718 375 271.56C430.439 270.786 485.645 278.887 538.524 295.558C561.729 302.956 583.44 314.407 602.65 329.379C610.045 334.531 616.216 341.246 620.726 349.048C625.236 356.851 627.976 365.55 628.75 374.529C628.75 405.667 591.956 437.223 532.688 456.834C481.537 472.048 428.357 479.328 375 478.421ZM375 293.238C321.243 292.519 267.715 300.363 216.424 316.474C165.674 334.182 142.928 358.397 142.928 374.474C142.928 391.294 167.378 417.739 221.064 436.099C270.964 451.068 322.92 458.036 375 456.744C426.047 457.656 476.934 450.749 525.891 436.262C581.625 417.793 607 391.312 607 374.529C606.086 368.769 603.987 363.262 600.836 358.354C597.685 353.447 593.55 349.246 588.694 346.018C571.507 332.735 552.112 322.587 531.401 316.039C480.814 300.157 428.015 292.46 375 293.238Z" fill="#00D8FF"/>
<path d="M272.05 600.53C263.594 600.724 255.239 598.672 247.835 594.585C221.88 579.613 212.89 536.44 223.783 479.074C235.793 424.175 256.604 371.58 285.408 323.326C312.427 274.916 347.018 231.14 387.868 193.66C405.87 177.251 426.636 164.162 449.204 154.999C457.366 151.173 466.271 149.19 475.285 149.19C484.3 149.19 493.204 151.173 501.367 154.999C528.355 170.55 537.291 218.183 524.694 279.318C512.313 331.239 492.043 380.953 464.592 426.729C438.523 474.567 405.022 517.961 365.339 555.29C346.685 572.341 325.035 585.793 301.485 594.965C292.057 598.464 282.105 600.346 272.05 600.53ZM304.185 334.092C276.71 380.299 256.764 430.584 245.098 483.061C235.075 535.896 244.699 567.669 258.692 575.753C273.192 584.145 308.39 576.188 351.129 538.85C389.011 503.089 420.987 461.551 445.869 415.781C472.167 372.019 491.61 324.488 503.524 274.841C515.378 217.295 505.137 182.06 490.601 173.686C485.153 171.598 479.331 170.664 473.503 170.941C467.675 171.219 461.969 172.703 456.744 175.299C436.655 183.588 418.187 195.357 402.187 210.063C363.158 245.964 330.117 287.872 304.312 334.201L304.185 334.092Z" fill="#00D8FF"/>
<path d="M477.895 600.765C453.336 600.765 422.143 585.902 389.663 557.972C348.097 520.15 312.921 475.854 285.498 426.801C257.055 379.211 236.41 327.377 224.345 273.264C219.112 249.457 218.143 224.91 221.481 200.764C222.253 191.807 224.98 183.128 229.471 175.34C233.962 167.551 240.107 160.843 247.472 155.687C274.424 140.082 320.153 156.122 366.825 197.556C405.624 234.208 438.571 276.594 464.519 323.235C492.944 369.714 513.806 420.413 526.325 473.437C531.783 498.118 532.625 523.596 528.808 548.583C527.9 557.798 525.01 566.707 520.336 574.701C515.662 582.694 509.315 589.582 501.73 594.892C494.446 598.929 486.22 600.956 477.895 600.765ZM304.258 415.89C330.565 462.769 364.166 505.162 403.8 541.478C444.563 576.55 476.898 584.09 490.8 575.915C505.3 567.487 515.994 533.086 504.974 477.424C492.901 426.8 472.891 378.406 445.687 334.037C420.925 289.398 389.477 248.811 352.434 213.687C308.499 174.682 272.865 165.964 258.347 174.374C253.822 178.051 250.109 182.627 247.441 187.812C244.774 192.997 243.211 198.678 242.85 204.498C239.969 226.032 240.907 247.906 245.623 269.114C257.229 320.863 277.029 370.425 304.276 415.926L304.258 415.89Z" fill="#00D8FF"/>
</svg>
