<svg width="750" height="750" viewBox="0 0 750 750" fill="none" xmlns="http://www.w3.org/2000/svg">
<rect width="750" height="750" rx="32" fill="#1E243A"/>
<path d="M261.868 426.629C290.909 426.629 314.451 402.878 314.451 373.58C314.451 344.282 290.909 320.531 261.868 320.531C232.828 320.531 209.286 344.282 209.286 373.58C209.286 402.878 232.828 426.629 261.868 426.629ZM137.582 532.726C166.623 532.726 190.165 508.975 190.165 479.677C190.165 450.379 166.623 426.629 137.582 426.629C108.542 426.629 85 450.379 85 479.677C85 508.975 108.542 532.726 137.582 532.726ZM612.418 532.726C641.458 532.726 665 508.975 665 479.677C665 450.379 641.458 426.629 612.418 426.629C583.377 426.629 559.835 450.379 559.835 479.677C559.835 508.975 583.377 532.726 612.418 532.726Z" fill="black"/>
<path d="M439.719 375.816C438.037 358.092 437.181 343.341 423.723 332.973C406.679 319.843 387.373 328.362 363.591 319.702C340.223 313.999 322.891 293.068 322.891 268.119C322.891 238.782 346.856 215 376.419 215C398.315 215 417.14 228.046 425.432 246.732C438.123 271.051 429.875 295.8 445.819 308.267C464.699 323.028 490.153 312.218 518.555 326.204C527.681 330.435 535.405 337.145 540.848 345.462C546.292 353.778 549.453 363.701 549.453 374.356C549.453 399.305 532.12 420.237 508.752 425.94C484.971 434.6 465.664 426.08 448.62 439.21C429.454 453.975 439.715 478.677 424.095 504.77C415.229 521.952 397.208 533.712 376.419 533.712C346.856 533.712 322.891 509.93 322.891 480.594C322.891 459.283 335.537 440.903 353.789 432.441C382.191 418.456 407.644 429.265 426.524 414.504C437.416 405.988 439.719 392.852 439.719 375.816Z" fill="#D0021B"/>
</svg>
