<svg width="750" height="750" viewBox="0 0 750 750" fill="none" xmlns="http://www.w3.org/2000/svg">
<rect width="750" height="750" rx="32" fill="#1E1B4B"/>
<path d="M486.879 488.463C508.283 486.14 524.521 466.78 523.782 443.548C523.044 420.316 504.592 401.73 482.45 401.73H480.974C458.094 402.505 440.38 422.639 441.118 446.645C441.856 458.261 446.285 468.329 452.927 475.298C427.833 527.183 389.453 565.129 331.883 596.879C292.765 618.562 252.171 626.307 211.577 620.886C178.364 616.239 152.531 600.751 136.293 575.196C112.675 537.25 110.461 496.207 130.389 455.164C144.412 425.737 166.554 404.053 180.578 393.212C177.626 383.144 173.197 366.108 170.983 353.717C63.9621 435.029 75.0332 544.994 107.508 596.879C131.865 635.599 181.316 659.606 235.933 659.606C250.695 659.606 265.456 658.057 280.218 654.185C374.691 634.825 446.285 575.97 486.879 488.463ZM616.78 392.437C560.686 323.516 478.022 285.57 383.548 285.57H371.739C365.096 271.631 351.073 262.338 335.573 262.338H334.097C311.217 263.112 293.503 283.247 294.241 307.253C294.979 330.485 313.431 349.071 335.573 349.071H337.05C353.287 348.296 367.311 337.455 373.215 322.741H386.501C442.594 322.741 495.736 339.778 543.71 373.077C580.614 398.633 607.185 431.932 621.946 472.201C634.494 504.725 633.755 536.476 620.47 563.58C599.804 604.623 565.115 627.081 519.354 627.081C489.831 627.081 461.784 617.788 447.023 610.818C438.904 618.562 424.142 630.953 413.809 638.697C445.547 654.185 478.022 662.703 509.021 662.703C579.876 662.703 632.279 621.66 652.207 580.617C673.612 535.702 672.135 458.261 616.78 392.437ZM241.838 501.628C242.576 524.86 261.028 543.446 283.17 543.446H284.646C307.527 542.671 325.24 522.537 324.502 498.53C323.764 475.298 305.312 456.713 283.17 456.713H281.694C280.218 456.713 278.004 456.713 276.528 457.487C246.266 404.828 233.719 347.522 238.148 285.57C241.1 239.106 255.861 198.837 281.694 165.538C303.098 136.885 344.43 122.946 372.477 122.171C450.713 120.622 483.926 222.843 486.141 263.887C495.736 266.21 511.973 271.631 523.044 275.503C514.187 150.05 440.38 85 369.525 85C303.098 85 241.838 135.336 217.482 209.679C183.53 308.802 205.672 404.053 247.005 479.17C243.314 484.591 241.1 493.109 241.838 501.628Z" fill="#764ABC"/>
</svg>
