<svg width="750" height="750" viewBox="0 0 750 750" fill="none" xmlns="http://www.w3.org/2000/svg">
<rect width="750" height="750" rx="32" fill="#111829"/>
<path d="M553.452 269.966V478.924L375.793 583.959L374.207 585.386V663.414L375.793 665L625.907 520.555V229.445L623.528 228.811L552.976 268.221L553.452 269.966Z" fill="#2F406A"/>
<path d="M197.817 480.669L375.793 583.959V665L124.094 520.079V230.079L126.631 229.604L197.024 270.441L197.817 272.82V480.669Z" fill="#2379BD"/>
<path d="M197.817 272.82L124.094 230.079L375.318 85L625.907 229.445L553.452 269.966L375.318 168.42L197.817 272.82Z" fill="#03AFEF"/>
<path d="M372.78 456.676L370.865 454.773V376.269L372.78 375.317L373.255 373.414L440.465 334.162L442.538 334.638V415.362L372.78 456.676Z" fill="#2F406A"/>
<path d="M301.9 417.899V334.003L303.815 333.845L372.146 373.731L372.78 375.317V456.676L301.9 417.899Z" fill="#2379BD"/>
<path d="M371.659 292.69L301.9 334.004L372.78 375.317L442.539 334.638L371.659 292.69Z" fill="#03AFEF"/>
<path d="M286.018 507.845L283.945 505.942V427.438L286.018 426.486L286.494 424.583L353.704 385.331L355.777 385.807V466.531L286.018 507.845Z" fill="#2F406A"/>
<path d="M214.979 469.069V385.173L216.893 385.014L285.383 424.9L286.017 426.486V507.845L214.979 469.069Z" fill="#2379BD"/>
<path d="M284.737 343.859L214.979 385.173L286.017 426.486L355.776 385.807L284.737 343.859Z" fill="#03AFEF"/>
<path d="M465.897 509.907L463.982 507.845V429.341L465.897 428.389L466.373 426.486L533.582 387.234L535.655 387.71V468.593L465.897 509.907Z" fill="#2F406A"/>
<path d="M394.859 471.142V387.076H396.932L465.264 426.803L465.898 428.389V509.907L394.859 471.142Z" fill="#2379BD"/>
<path d="M464.618 345.762L394.859 387.076L465.898 428.39L535.657 387.71L464.618 345.762Z" fill="#03AFEF"/>
<path d="M378.977 561.076L377.062 559.014V480.51L378.977 479.558L379.453 477.655L446.663 438.403L448.736 438.879V519.762L378.977 561.076Z" fill="#2F406A"/>
<path d="M308.096 522.3V438.245H310.01L378.5 477.973L378.976 479.559V561.076L308.096 522.3Z" fill="#2379BD"/>
<path d="M377.854 396.931L308.096 438.245L378.976 479.559L448.734 438.879L377.854 396.931Z" fill="#03AFEF"/>
<path d="M372.78 345.445L370.865 343.542V265.038L372.78 264.086L373.255 262.025L440.465 222.931L442.538 223.248V304.131L372.78 345.445Z" fill="#2F406A"/>
<path d="M301.9 306.669V222.773L303.815 222.614L372.146 262.501L372.78 264.087V345.445L301.9 306.669Z" fill="#2379BD"/>
<path d="M371.659 181.459L301.9 222.773L372.78 264.086L442.539 223.248L371.659 181.459Z" fill="#03AFEF"/>
<path d="M286.018 396.614L283.945 394.7V316.207L286.018 315.256L286.494 313.183L353.704 274.101L355.777 274.418V355.301L286.018 396.614Z" fill="#2F406A"/>
<path d="M214.979 357.838V273.942L216.893 273.783L285.383 313.658L286.017 315.255V396.614L214.979 357.838Z" fill="#2379BD"/>
<path d="M284.737 232.617L214.979 273.942L286.017 315.255L355.776 274.417L284.737 232.617Z" fill="#03AFEF"/>
<path d="M465.897 398.517L463.982 396.614V318.11L465.897 317.158L466.373 315.255L533.582 276.003L535.655 276.479V357.203L465.897 398.517Z" fill="#2F406A"/>
<path d="M394.859 359.741V275.845L396.932 275.687L465.264 315.573L465.898 317.159V398.517L394.859 359.741Z" fill="#2379BD"/>
<path d="M464.618 234.531L394.859 275.845L465.898 317.159L535.657 276.479L464.618 234.531Z" fill="#03AFEF"/>
<path d="M378.977 449.687L377.062 447.783V369.279L378.977 368.328L379.453 366.425L446.663 327.173L448.736 327.649V408.373L378.977 449.687Z" fill="#2F406A"/>
<path d="M308.096 410.91V327.014L310.01 326.855L378.5 366.742L378.976 368.328V449.686L308.096 410.91Z" fill="#2379BD"/>
<path d="M377.854 285.7L308.096 327.014L378.976 368.328L448.734 327.648L377.854 285.7Z" fill="#03AFEF"/>
</svg>
