<svg width="750" height="750" viewBox="0 0 750 750" fill="none" xmlns="http://www.w3.org/2000/svg">
<rect width="750" height="750" rx="32" fill="white"/>
<g clip-path="url(#clip0_188_120)">
<path d="M621.959 369.78L369.78 621.959C359.944 631.795 359.944 647.769 369.78 657.629C379.616 667.465 395.59 667.465 405.45 657.629L657.629 405.45C667.465 395.59 667.465 379.616 657.629 369.78C647.769 359.944 631.795 359.944 621.959 369.78ZM571.524 92.3708L92.371 571.523C82.5352 581.359 82.5352 597.333 92.371 607.193C102.231 617.029 118.205 617.029 128.041 607.193L607.194 128.041C617.029 118.205 617.029 102.231 607.194 92.3708C597.334 82.5349 581.359 82.5349 571.524 92.3708Z" fill="black"/>
</g>
<defs>
<clipPath id="clip0_188_120">
<rect width="580" height="580" fill="white" transform="translate(85 85)"/>
</clipPath>
</defs>
</svg>
