<svg width="750" height="750" viewBox="0 0 750 750" fill="none" xmlns="http://www.w3.org/2000/svg">
<rect width="750" height="750" rx="32" fill="white"/>
<g clip-path="url(#clip0_188_241)">
<path d="M612.499 115.245C604.341 134.726 593.992 153.226 581.528 170.216C526.987 115.698 452.958 85.0405 375.831 85.0405C216.289 85.0405 85 216.428 85 376.133C85 455.796 117.633 532.061 175.346 587.033L186.073 596.547C238.498 640.721 304.898 665.035 373.414 665.035C525.099 665.035 652.611 546.182 663.414 394.708C671.345 320.557 649.59 226.773 612.499 115.245ZM216.667 588.694C211.984 594.508 204.807 597.906 197.329 597.906C183.656 597.906 172.476 586.655 172.476 572.988C172.476 559.321 183.731 548.07 197.329 548.07C202.994 548.07 208.584 550.033 212.966 553.657C223.617 562.266 225.279 578.047 216.667 588.694ZM611.291 501.555C539.527 597.227 386.256 564.984 287.977 569.59C287.977 569.59 270.527 570.647 253.002 573.517C253.002 573.517 259.574 570.723 268.11 567.476C337.079 543.464 369.712 538.782 411.637 517.261C490.577 477.09 568.61 389.196 584.852 297.753C554.786 385.723 463.685 461.308 380.666 492.041C323.784 513.033 221.048 533.421 221.048 533.421L216.894 531.231C146.943 497.176 144.828 345.627 271.963 296.696C327.636 275.251 380.892 287.031 441.022 272.684C505.232 257.431 579.488 209.255 609.704 146.43C643.547 246.935 684.263 404.298 611.291 501.555Z" fill="#77BC1F"/>
</g>
<defs>
<clipPath id="clip0_188_241">
<rect width="580" height="580" fill="white" transform="translate(85 85)"/>
</clipPath>
</defs>
</svg>
