<svg width="750" height="750" viewBox="0 0 750 750" fill="none" xmlns="http://www.w3.org/2000/svg">
<rect width="750" height="750" rx="32" fill="#0B3741"/>
<g clip-path="url(#clip0_187_59)">
<path d="M375 165C297.969 165 250.391 211.364 230 304.091C259.453 257.727 293.438 241.364 331.953 252.273C354.609 257.727 368.203 276.818 386.328 298.636C415.781 334.091 447.5 375 520 375C597.031 375 644.609 328.636 665 235.909C635.547 282.273 601.562 298.636 563.047 287.727C540.391 279.545 526.797 260.455 508.672 238.636C479.219 205.909 447.5 165 375 165ZM230 375C152.969 375 105.391 421.364 85 514.091C114.453 467.727 148.438 451.364 186.953 462.273C209.609 467.727 223.203 486.818 241.328 508.636C270.781 544.091 302.5 585 375 585C452.031 585 499.609 538.636 520 443.182C490.547 489.545 456.562 508.636 418.047 497.727C395.391 489.545 381.797 470.455 363.672 448.636C334.219 415.909 302.5 375 230 375Z" fill="url(#paint0_linear_187_59)"/>
</g>
<defs>
<linearGradient id="paint0_linear_187_59" x1="-1539" y1="13605" x2="52806.5" y2="39594.6" gradientUnits="userSpaceOnUse">
<stop stop-color="#2298BD"/>
<stop offset="1" stop-color="#0ED7B5"/>
</linearGradient>
<clipPath id="clip0_187_59">
<rect width="580" height="420" fill="white" transform="translate(85 165)"/>
</clipPath>
</defs>
</svg>
