<svg width="750" height="750" viewBox="0 0 750 750" fill="none" xmlns="http://www.w3.org/2000/svg">
<rect width="750" height="750" rx="32" fill="#1E0000"/>
<g clip-path="url(#clip0_188_148)">
<path d="M543.749 272.248C553.182 226.52 555.196 191.445 549.091 165.986C545.458 150.845 538.834 138.482 528.76 129.568C518.076 120.166 504.645 115.526 489.504 115.526C464.533 115.526 438.28 126.913 410.227 148.495C397.661 158.319 385.76 168.966 374.603 180.364C373.626 179.143 372.496 177.922 371.245 176.823C336.445 145.778 307.078 126.516 281.986 119.067C267.058 114.672 253.047 114.244 240.287 118.518C226.825 123.066 216.079 132.407 208.539 145.534C196.024 167.177 192.727 195.597 197.367 230.702C199.29 245.019 202.526 260.618 207.135 277.499C205.395 277.713 203.655 278.11 201.946 278.659C157.683 293.312 126.393 309.033 107.406 327.043C96.111 337.727 88.7847 349.663 86.0984 362.851C83.2899 376.771 86.0373 390.752 93.6078 403.847C106.063 425.46 129.018 442.494 161.682 455.986C174.808 461.42 189.644 466.335 206.25 470.731C205.477 472.474 204.894 474.296 204.51 476.164C195.047 521.893 193.032 556.967 199.137 582.426C202.77 597.598 209.394 609.931 219.498 618.844C230.152 628.277 243.614 632.886 258.755 632.886C283.726 632.886 309.948 621.531 338.002 599.918C349.571 591.004 361.568 580.259 374.023 567.652C375.341 569.691 376.933 571.54 378.754 573.146C413.615 604.222 442.982 623.515 468.074 630.933C483.001 635.328 497.013 635.756 509.773 631.482C523.235 626.934 533.98 617.593 541.52 604.466C554.036 582.823 557.333 554.403 552.693 519.298C550.384 502.874 546.957 486.627 542.436 470.67C544.329 470.486 546.252 470.059 548.145 469.448C592.347 454.796 623.667 439.075 642.654 421.064C653.949 410.38 661.275 398.444 663.962 385.257C666.77 371.337 664.023 357.356 656.452 344.26C643.997 322.647 621.042 305.614 588.378 292.121C573.389 286.051 558.01 280.993 542.345 276.98C542.955 275.454 543.444 273.927 543.779 272.248H543.749Z" fill="#002C4B"/>
<path fill-rule="evenodd" clip-rule="evenodd" d="M330.432 280.369H419.569C422.256 280.366 424.896 281.074 427.223 282.419C429.549 283.765 431.479 285.7 432.817 288.031L477.508 365.873C478.836 368.186 479.535 370.807 479.535 373.474C479.535 376.141 478.836 378.762 477.508 381.075L432.817 458.917C431.481 461.243 429.556 463.176 427.236 464.521C424.915 465.866 422.281 466.576 419.599 466.579H330.432C327.745 466.581 325.104 465.874 322.778 464.529C320.452 463.183 318.522 461.247 317.183 458.917L272.523 381.075C271.195 378.762 270.496 376.141 270.496 373.474C270.496 370.807 271.195 368.186 272.523 365.873L317.183 288.031C318.522 285.7 320.452 283.765 322.778 282.419C325.104 281.074 327.745 280.366 330.432 280.369ZM408.549 299.539C411.236 299.537 413.876 300.244 416.203 301.59C418.529 302.935 420.459 304.871 421.797 307.201L455.407 365.873C456.735 368.186 457.434 370.807 457.434 373.474C457.434 376.141 456.735 378.762 455.407 381.075L421.797 439.747C420.459 442.077 418.529 444.013 416.203 445.358C413.876 446.704 411.236 447.411 408.549 447.409H341.482C338.795 447.411 336.155 446.704 333.828 445.358C331.502 444.013 329.572 442.077 328.234 439.747L294.594 381.075C293.266 378.762 292.567 376.141 292.567 373.474C292.567 370.807 293.266 368.186 294.594 365.873L328.234 307.232C329.572 304.901 331.502 302.966 333.828 301.62C336.155 300.275 338.795 299.568 341.482 299.57H408.549V299.539ZM396.643 320.48H353.357C350.675 320.483 348.041 321.193 345.721 322.538C343.4 323.884 341.475 325.816 340.139 328.142L318.466 365.873C317.137 368.186 316.438 370.807 316.438 373.474C316.438 376.141 317.137 378.762 318.466 381.075L340.139 418.805C341.479 421.126 343.406 423.052 345.726 424.392C348.046 425.732 350.678 426.437 353.357 426.437H396.582C399.267 426.442 401.905 425.74 404.231 424.4C406.557 423.06 408.489 421.13 409.831 418.805L431.505 381.075C432.833 378.762 433.532 376.141 433.532 373.474C433.532 370.807 432.833 368.186 431.505 365.873L409.831 328.142C408.489 325.818 406.557 323.888 404.231 322.548C401.905 321.208 399.267 320.505 396.582 320.511L396.643 320.48ZM385.135 340.536C387.814 340.536 390.446 341.241 392.766 342.581C395.087 343.921 397.013 345.847 398.353 348.168L408.518 365.873C409.847 368.186 410.545 370.807 410.545 373.474C410.545 376.141 409.847 378.762 408.518 381.075L398.353 398.78C397.013 401.1 395.087 403.027 392.766 404.367C390.446 405.706 387.814 406.412 385.135 406.412H364.896C362.212 406.417 359.573 405.714 357.247 404.374C354.921 403.035 352.99 401.105 351.648 398.78L341.482 381.075C340.154 378.762 339.455 376.141 339.455 373.474C339.455 370.807 340.154 368.186 341.482 365.873L351.648 348.168C352.99 345.843 354.921 343.913 357.247 342.573C359.573 341.233 362.212 340.531 364.896 340.536H385.135ZM375 360.287C371.503 360.287 368.149 361.676 365.675 364.149C363.202 366.622 361.813 369.976 361.813 373.474C361.813 376.971 363.202 380.326 365.675 382.799C368.149 385.272 371.503 386.661 375 386.661C378.498 386.661 381.852 385.272 384.325 382.799C386.798 380.326 388.188 376.971 388.188 373.474C388.188 369.976 386.798 366.622 384.325 364.149C381.852 361.676 378.498 360.287 375 360.287ZM268.158 373.474H291.877H268.158Z" fill="#FFD94C"/>
<path fill-rule="evenodd" clip-rule="evenodd" d="M252.466 415.783C253.418 415.237 254.469 414.886 255.558 414.751C256.647 414.615 257.752 414.697 258.809 414.992C259.866 415.288 260.853 415.791 261.714 416.472C262.575 417.152 263.291 417.998 263.822 418.958L265.257 421.522C276.857 442.097 288.976 461.634 301.583 480.133C317.223 503.004 333.94 525.119 351.677 546.405C353.077 548.101 353.763 550.274 353.593 552.467C353.422 554.659 352.407 556.699 350.761 558.158L348.93 559.776C287.541 613.411 247.643 624.125 229.236 591.92C211.225 560.417 217.727 503.15 248.773 420.118C249.475 418.286 250.757 416.76 252.466 415.783ZM513.985 478.912C516.121 478.527 518.323 479.001 520.111 480.23C521.9 481.459 523.132 483.343 523.54 485.475L523.998 487.917C539.17 567.285 528.485 607 491.945 607C456.23 607 410.745 573.116 355.493 505.439C354.497 504.219 353.869 502.742 353.681 501.179C353.493 499.616 353.754 498.031 354.432 496.611C355.11 495.19 356.179 493.991 357.512 493.155C358.846 492.318 360.39 491.878 361.964 491.885H364.864C388.156 492.038 410.745 491.214 432.724 489.474C459.964 487.249 487.082 483.724 513.985 478.912ZM534.987 310.315C535.784 308.237 537.355 306.549 539.37 305.604C541.385 304.66 543.687 304.532 545.794 305.247L548.236 306.072C627.085 332.935 657.062 362.454 638.136 394.659C619.606 426.132 565.727 449.057 476.53 463.404C474.545 463.71 472.531 463.374 470.791 462.366C469.826 461.82 468.98 461.086 468.303 460.208C467.626 459.33 467.13 458.325 466.846 457.254C466.562 456.182 466.494 455.064 466.647 453.966C466.8 452.868 467.171 451.811 467.738 450.858L469.264 448.294C481.475 427.841 492.464 407.511 502.294 387.272C514.411 362.169 525.312 336.497 534.957 310.345L534.987 310.315ZM273.468 286.596C275.453 286.291 277.467 286.626 279.207 287.634C280.172 288.181 281.018 288.915 281.695 289.793C282.372 290.671 282.868 291.675 283.152 292.747C283.436 293.818 283.504 294.936 283.351 296.034C283.198 297.133 282.827 298.189 282.26 299.142L280.734 301.706C268.523 322.159 257.534 342.49 247.704 362.729C235.587 387.831 224.686 413.503 215.041 439.655C214.25 441.745 212.677 443.446 210.654 444.397C208.632 445.348 206.319 445.476 204.204 444.753L201.762 443.929C122.943 417.065 92.9358 387.546 111.862 355.341C130.392 323.869 184.271 300.943 273.468 286.596ZM401.068 190.224C462.457 136.59 502.355 125.875 520.762 158.08C538.773 189.583 532.271 246.851 501.225 329.882C500.686 331.383 499.724 332.696 498.456 333.663C497.187 334.63 495.666 335.21 494.076 335.332C492.486 335.455 490.894 335.115 489.492 334.354C488.091 333.593 486.939 332.443 486.176 331.042L484.741 328.478C473.457 308.442 461.338 288.888 448.415 269.868C432.775 246.997 416.058 224.881 398.321 203.595C396.921 201.899 396.235 199.726 396.405 197.534C396.576 195.341 397.591 193.301 399.237 191.842L401.068 190.224ZM261.105 139.948C296.852 139.948 342.336 173.832 397.558 241.509C398.552 242.726 399.18 244.201 399.369 245.761C399.558 247.321 399.3 248.903 398.625 250.323C397.95 251.743 396.887 252.942 395.558 253.78C394.229 254.619 392.689 255.064 391.117 255.062H388.217C364.925 254.91 342.336 255.734 320.357 257.474C293.117 259.698 265.999 263.223 239.096 268.036C236.96 268.42 234.759 267.947 232.97 266.718C231.181 265.489 229.949 263.604 229.541 261.473L229.083 259.031C213.881 179.662 224.565 139.948 261.105 139.948Z" fill="#FF4154"/>
</g>
<defs>
<clipPath id="clip0_188_148">
<rect width="580" height="580" fill="white" transform="translate(85 85)"/>
</clipPath>
</defs>
</svg>
