<svg width="750" height="750" viewBox="0 0 750 750" fill="none" xmlns="http://www.w3.org/2000/svg">
<rect width="750" height="750" rx="32" fill="#0B3741"/>
<g clip-path="url(#clip0_187_47)">
<path d="M85 85H665V665H85" fill="#3178C6"/>
<path d="M348.945 406.719H421.445V360.274H218.672V406.719H291.172V614.024H348.945V406.719ZM444.102 602.695C464.526 613.129 492.031 616.856 516.602 616.856C537.785 616.856 565.233 614.103 586.836 600.543C596.012 594.539 603.828 586.949 608.359 576.754C612.891 566.559 616.402 555.231 616.402 540.504C616.3 493.889 583.222 478.437 550.586 463.473C535.769 456.733 502.441 445.846 502.441 424.844C502.441 407.92 521.484 399.322 545.715 399.242C564.61 399.242 590.008 405.393 605.754 416.959V363.717C584.491 355.55 562.209 354.02 542.316 353.975C486.525 353.975 443.014 376.994 442.629 429.647C443.184 469.42 466.78 486.786 501.535 503.28C520.464 511.844 555.423 522.809 555.684 546.553C554.857 568.722 527.839 572.098 512.184 572.268C487.76 572.268 461.932 562.99 444.102 548.32V602.695Z" fill="white"/>
</g>
<defs>
<clipPath id="clip0_187_47">
<rect width="580" height="580" fill="white" transform="translate(85 85)"/>
</clipPath>
</defs>
</svg>
